<svg width="24" height="25" viewBox="0 0 24 25" fill="none" xmlns="http://www.w3.org/2000/svg">
<path fill-rule="evenodd" clip-rule="evenodd" d="M4.95063 2.981C5.72857 2.65798 6.56261 2.4917 7.40494 2.4917C8.24727 2.4917 9.08132 2.65798 9.85925 2.981C10.6372 3.30402 11.3437 3.77743 11.9383 4.37408L11.9416 4.37742L11.9999 4.43653L12.0583 4.37743L12.0616 4.37408C12.6562 3.77743 13.3627 3.30402 14.1406 2.981C14.9186 2.65798 15.7526 2.4917 16.5949 2.4917C17.4373 2.4917 18.2713 2.65798 19.0492 2.981C19.8269 3.30391 20.5332 3.7771 21.1277 4.37346C23.6727 6.91915 23.7293 11.1283 20.7136 14.2005L20.7071 14.2071L12.707 22.2071C12.5195 22.3946 12.2652 22.5 11.9999 22.5C11.7347 22.5 11.4804 22.3946 11.2928 22.2071L3.28627 14.2005C0.270576 11.1283 0.327197 6.91915 2.87223 4.37346C3.46668 3.7771 4.17297 3.30391 4.95063 2.981ZM7.40494 4.4917C6.82584 4.4917 6.25243 4.60602 5.71761 4.82809C5.18278 5.05017 4.69705 5.37564 4.28827 5.78584L4.28705 5.78706C2.59343 7.48068 2.3897 10.4292 4.71046 12.7963L11.9999 20.0857L19.2894 12.7963C21.6102 10.4292 21.4065 7.48068 19.7128 5.78706L19.7116 5.78584C19.3028 5.37564 18.8171 5.05017 18.2823 4.82809C17.7474 4.60602 17.174 4.4917 16.5949 4.4917C16.0158 4.4917 15.4424 4.60602 14.9076 4.82809C14.3735 5.04988 13.8883 5.37478 13.4799 5.78422C13.4794 5.78476 13.4788 5.7853 13.4783 5.78584L12.7116 6.56249C12.5237 6.75282 12.2674 6.85996 11.9999 6.85996C11.7325 6.85996 11.4762 6.75282 11.2883 6.56249L10.5216 5.78584C10.5211 5.7853 10.5205 5.78476 10.52 5.78422C10.1116 5.37478 9.6264 5.04988 9.09228 4.82809C8.55745 4.60602 7.98404 4.4917 7.40494 4.4917Z" fill="#253D4E"/>
</svg>
