<svg width="24" height="25" viewBox="0 0 24 25" fill="none" xmlns="http://www.w3.org/2000/svg">
<path fill-rule="evenodd" clip-rule="evenodd" d="M4.95076 2.981C5.72869 2.65798 6.56273 2.4917 7.40506 2.4917C8.24739 2.4917 9.08144 2.65798 9.85937 2.981C10.6373 3.30402 11.3438 3.77743 11.9384 4.37408L11.9417 4.37742L12.0001 4.43653L12.0584 4.37743L12.0617 4.37408C12.6563 3.77743 13.3628 3.30402 14.1408 2.981C14.9187 2.65798 15.7527 2.4917 16.5951 2.4917C17.4374 2.4917 18.2714 2.65798 19.0494 2.981C19.827 3.30391 20.5333 3.7771 21.1278 4.37346C23.6728 6.91915 23.7294 11.1283 20.7137 14.2005L20.7072 14.2071L12.7072 22.2071C12.5196 22.3946 12.2653 22.5 12.0001 22.5C11.7348 22.5 11.4805 22.3946 11.293 22.2071L3.2864 14.2005C0.270699 11.1283 0.327319 6.91915 2.87235 4.37346C3.4668 3.7771 4.1731 3.30391 4.95076 2.981ZM7.40506 4.4917C6.82596 4.4917 6.25255 4.60602 5.71773 4.82809C5.1829 5.05017 4.69717 5.37564 4.2884 5.78584L4.28717 5.78706C2.59356 7.48068 2.38982 10.4292 4.71058 12.7963L12.0001 20.0857L19.2895 12.7963C21.6103 10.4292 21.4066 7.48068 19.713 5.78706L19.7117 5.78584C19.303 5.37564 18.8172 5.05017 18.2824 4.82809C17.7476 4.60602 17.1742 4.4917 16.5951 4.4917C16.016 4.4917 15.4426 4.60602 14.9077 4.82809C14.3736 5.04988 13.8884 5.37478 13.48 5.78422C13.4795 5.78476 13.4789 5.7853 13.4784 5.78584L12.7117 6.56249C12.5238 6.75282 12.2675 6.85996 12.0001 6.85996C11.7326 6.85996 11.4763 6.75282 11.2884 6.56249L10.5217 5.78584C10.5212 5.7853 10.5207 5.78476 10.5201 5.78422C10.1117 5.37478 9.62652 5.04988 9.0924 4.82809C8.55757 4.60602 7.98416 4.4917 7.40506 4.4917Z" fill="#253D4E"/>
</svg>
